<?xml version="1.0" standalone="no"?>
<!DOCTYPE svg PUBLIC "-//W3C//DTD SVG 20010904//EN"
 "http://www.w3.org/TR/2001/REC-SVG-20010904/DTD/svg10.dtd">
<svg version="1.0" xmlns="http://www.w3.org/2000/svg"
 width="774.000000pt" height="584.000000pt" viewBox="0 0 774.000000 584.000000"
 preserveAspectRatio="xMidYMid meet">

<g transform="translate(0.000000,584.000000) scale(0.100000,-0.100000)"
fill="#000000" stroke="white">
<path d="M0 2920 l0 -2921 818 4 c894 4 853 1 1029 65 364 133 624 491 713
983 51 284 49 677 -5 927 l-5 22 535 0 535 0 0 -990 0 -990 95 0 95 0 0 2910
0 2911 -142 -3 -141 -3 -559 -1675 c-307 -921 -560 -1681 -563 -1689 -3 -8
-27 22 -58 73 -133 219 -307 362 -483 397 -35 7 -64 17 -64 23 0 6 39 31 86
55 238 121 417 417 498 821 36 181 47 300 47 525 0 368 -56 645 -177 887 -154
307 -373 485 -694 565 -56 14 -165 17 -812 20 l-748 4 0 -2921z m1532 2717
c436 -106 696 -456 757 -1019 14 -123 14 -395 1 -513 -60 -535 -285 -907 -615
-1017 l-70 -23 -732 -3 -733 -3 0 1301 0 1301 663 -4 c568 -3 672 -6 729 -20z
m2088 -1767 l0 -1680 -560 0 c-441 0 -560 3 -560 13 0 12 1113 3347 1118 3347
1 0 2 -756 2 -1680z m-1983 -1016 c305 -63 560 -303 706 -664 178 -441 163
-1060 -34 -1452 -57 -113 -108 -187 -193 -276 -153 -161 -319 -244 -546 -272
-51 -6 -352 -10 -757 -10 l-673 0 0 1345 0 1345 710 0 c609 0 722 -2 787 -16z"/>
<path d="M3930 2930 l0 -2910 95 0 95 0 0 990 0 990 535 0 535 0 -5 -22 c-17
-80 -27 -164 -37 -320 -25 -378 33 -744 162 -1025 126 -271 335 -474 583 -565
176 -64 135 -61 1030 -65 l817 -4 0 2921 0 2921 -747 -4 c-648 -3 -757 -6
-813 -20 -212 -53 -364 -139 -503 -286 -246 -261 -367 -646 -368 -1166 0 -225
11 -344 47 -525 81 -404 260 -700 498 -821 47 -24 86 -49 86 -55 0 -6 -29 -16
-64 -23 -176 -35 -350 -178 -483 -397 -31 -51 -55 -81 -58 -73 -3 8 -256 768
-563 1689 l-559 1675 -141 3 -142 3 0 -2911z m3670 1430 l0 -1301 -732 3 -733
3 -70 23 c-330 110 -555 482 -615 1017 -13 118 -13 390 1 513 65 603 372 976
848 1032 36 4 344 8 684 9 l617 1 0 -1300z m-2360 -2157 c0 -11 -103 -13 -560
-13 l-560 0 1 1683 0 1682 560 -1669 c307 -918 559 -1676 559 -1683z m2360
-678 l0 -1345 -673 0 c-674 0 -780 4 -902 37 -353 94 -623 426 -714 878 -44
216 -49 475 -15 714 79 548 395 958 804 1046 52 11 211 14 783 14 l717 1 0
-1345z"/>
</g>
</svg>
